<svg width="124" height="124" viewBox="0 0 124 124" fill="none" xmlns="http://www.w3.org/2000/svg">
<path d="M17.3944 12.3656L16.0511 11.0222C14.7078 9.67889 12.5378 9.71334 11.2289 11.0222L11.1944 11.0567C9.85111 12.4 9.85111 14.57 11.1944 15.8789L12.5378 17.2222C13.8811 18.5656 16.0167 18.5656 17.36 17.2222L17.3944 17.1878C18.7378 15.8789 18.7378 13.6744 17.3944 12.3656Z" fill="#FFEC65"/>
<path d="M6.92333 34.2722H3.41C1.51556 34.2722 0 35.7878 0 37.6822V37.7167C0 39.6111 1.51556 41.1267 3.41 41.1267H6.88889C8.81778 41.1611 10.3333 39.6456 10.3333 37.7511V37.7167C10.3333 35.7878 8.81778 34.2722 6.92333 34.2722Z" fill="#FFEC65"/>
<path d="M37.9233 0H37.8889C35.96 0 34.4444 1.51556 34.4444 3.41V6.71667C34.4444 8.61111 35.96 10.1267 37.8544 10.1267H37.8889C39.8178 10.1611 41.3333 8.64556 41.3333 6.75111V3.41C41.3333 1.51556 39.8178 0 37.9233 0Z" fill="#FFEC65"/>
<path d="M64.5833 11.0567C63.24 9.71333 61.07 9.71334 59.7267 11.0222L58.3833 12.3656C57.04 13.7089 57.04 15.8789 58.3833 17.1878L58.4178 17.2222C59.7611 18.5656 61.9311 18.5656 63.24 17.2222L64.5833 15.8789C65.9267 14.5356 65.9267 12.4 64.5833 11.0567Z" fill="#FFEC65"/>
<path d="M37.8889 17.05C26.4878 17.05 17.2222 26.3156 17.2222 37.7167C17.2222 45.1069 21.1153 51.5998 26.9595 55.2536C29.756 47.1524 37.4485 41.3333 46.5 41.3333C46.8562 41.3333 47.2103 41.3424 47.5621 41.3602C49.0542 36.0648 52.0425 31.3965 56.0418 27.8404C52.5341 21.4154 45.7146 17.05 37.8889 17.05Z" fill="#FFEC65"/>
<path d="M11.1944 64.3767C12.5378 65.72 14.7078 65.72 16.0511 64.3767L17.3944 63.0334C18.7378 61.69 18.7033 59.52 17.3944 58.2111L17.36 58.1767C16.0167 56.8333 13.8467 56.8333 12.5033 58.1767L11.16 59.52C9.85111 60.8978 9.85111 63.0333 11.1944 64.3767Z" fill="#FFEC65"/>
<path d="M98.2126 98.1667H103.333C114.747 98.1667 124 88.9139 124 77.5C124 67.8065 117.326 59.6718 108.323 57.4397C108.44 56.3926 108.5 55.3283 108.5 54.25C108.5 38.5559 95.7774 25.8333 80.0833 25.8333C67.0662 25.8333 56.0934 34.5858 52.7288 46.5268C52.377 46.509 52.0229 46.5 51.6667 46.5C40.2528 46.5 31 55.7528 31 67.1667C31 67.46 31.0061 67.7519 31.0182 68.0422C24.9885 70.1649 20.6667 75.9111 20.6667 82.6667C20.6667 91.2271 27.6063 98.1667 36.1667 98.1667H61.216L83.3474 59.4366C85.9761 54.8365 93 56.7018 93 62V82.6667H98.1667C102.134 82.6667 104.621 86.9523 102.653 90.3967L98.2126 98.1667Z" fill="white"/>
<path d="M67.1667 98.1667L87.8333 62V87.8333H98.1667L77.5 124V98.1667H67.1667Z" fill="#FFEC65"/>
<path d="M59.6839 124H53.9828L54.5529 117.685L49.3506 121.345L46.5 116.322L52.2012 113.667L46.5 111.012L49.3506 105.988L54.5529 109.648L53.9828 103.333H59.6839L59.1138 109.648L64.3161 105.988L67.1667 111.012L61.4655 113.667L67.1667 116.322L64.3161 121.345L59.1138 117.685L59.6839 124Z" fill="white"/>
</svg>
