<svg width="17" height="12" viewBox="0 0 17 12" fill="none" xmlns="http://www.w3.org/2000/svg">
<path fill-rule="evenodd" clip-rule="evenodd" d="M15.6012 0.650024H14.6262C14.0876 0.650024 13.6511 1.08658 13.6511 1.6251V10.0758C13.6511 10.6143 14.0876 11.0509 14.6262 11.0509H15.6012C16.1398 11.0509 16.5763 10.6143 16.5763 10.0758V1.6251C16.5763 1.08658 16.1398 0.650024 15.6012 0.650024ZM10.0758 2.92524H11.0508C11.5894 2.92524 12.0259 3.3618 12.0259 3.90032V10.0758C12.0259 10.6143 11.5894 11.0509 11.0508 11.0509H10.0758C9.53724 11.0509 9.10068 10.6143 9.10068 10.0758V3.90032C9.10068 3.3618 9.53724 2.92524 10.0758 2.92524ZM6.50052 5.20035H5.52544C4.98692 5.20035 4.55036 5.63691 4.55036 6.17543V10.0757C4.55036 10.6143 4.98692 11.0508 5.52544 11.0508H6.50052C7.03904 11.0508 7.4756 10.6143 7.4756 10.0757V6.17543C7.4756 5.63691 7.03904 5.20035 6.50052 5.20035ZM1.95016 7.15051H0.975079C0.436558 7.15051 0 7.58707 0 8.12559V10.0757C0 10.6143 0.436558 11.0508 0.975079 11.0508H1.95016C2.48868 11.0508 2.92524 10.6143 2.92524 10.0757V8.12559C2.92524 7.58707 2.48868 7.15051 1.95016 7.15051Z" fill="white"/>
</svg>
