<svg width="16" height="11" viewBox="0 0 16 11" fill="none" xmlns="http://www.w3.org/2000/svg">
<path fill-rule="evenodd" clip-rule="evenodd" d="M7.92717 2.22754C10.0965 2.22764 12.1828 3.06046 13.755 4.55389C13.8734 4.66919 14.0626 4.66773 14.1792 4.55063L15.3109 3.40946C15.3699 3.35007 15.4028 3.26962 15.4023 3.18591C15.4018 3.1022 15.368 3.02213 15.3083 2.96343C11.1818 -0.987811 4.67187 -0.987811 0.54542 2.96343C0.485645 3.02209 0.45173 3.10213 0.451179 3.18584C0.450628 3.26955 0.483486 3.35003 0.542483 3.40946L1.6745 4.55063C1.79102 4.66791 1.9804 4.66936 2.09872 4.55389C3.67109 3.06037 5.75767 2.22754 7.92717 2.22754ZM7.92716 5.94016C9.11904 5.94009 10.2684 6.38273 11.1519 7.18207C11.2714 7.29552 11.4596 7.29306 11.5761 7.17653L12.7065 6.03537C12.766 5.97551 12.799 5.89431 12.7982 5.80993C12.7973 5.72555 12.7626 5.64504 12.7019 5.5864C10.0115 3.0859 5.84509 3.0859 3.15469 5.5864C3.09392 5.64504 3.05925 5.72559 3.05845 5.81C3.05765 5.8944 3.0908 5.9756 3.15045 6.03537L4.2805 7.17653C4.39699 7.29306 4.58523 7.29552 4.70472 7.18207C5.58763 6.38326 6.73607 5.94065 7.92716 5.94016ZM10.1915 8.43819C10.1932 8.52281 10.1599 8.60438 10.0995 8.66367L8.14416 10.6353C8.08684 10.6932 8.00869 10.7258 7.92715 10.7258C7.84561 10.7258 7.76747 10.6932 7.71015 10.6353L5.7545 8.66367C5.69408 8.60434 5.66085 8.52274 5.66264 8.43812C5.66443 8.3535 5.70109 8.27338 5.76396 8.21666C7.0127 7.16136 8.8416 7.16136 10.0903 8.21666C10.1532 8.27342 10.1898 8.35357 10.1915 8.43819Z" fill="white"/>
</svg>
