<svg width="193" height="193" viewBox="0 0 193 193" fill="none" xmlns="http://www.w3.org/2000/svg">
<path d="M27.0736 19.2464L24.9828 17.1556C22.8919 15.0647 19.5144 15.1183 17.4772 17.1556L17.4236 17.2092C15.3328 19.3 15.3328 22.6775 17.4236 24.7147L19.5144 26.8056C21.6053 28.8964 24.9292 28.8964 27.02 26.8056L27.0736 26.7519C29.1644 24.7147 29.1644 21.2836 27.0736 19.2464Z" fill="#FFEC65"/>
<path d="M10.7758 53.3431H5.3075C2.35889 53.3431 0 55.702 0 58.6506V58.7042C0 61.6528 2.35889 64.0117 5.3075 64.0117H10.7222C13.7244 64.0653 16.0833 61.7064 16.0833 58.7578V58.7042C16.0833 55.702 13.7244 53.3431 10.7758 53.3431Z" fill="#FFEC65"/>
<path d="M59.0258 0H58.9722C55.97 0 53.6111 2.35889 53.6111 5.3075V10.4542C53.6111 13.4028 55.97 15.7617 58.9186 15.7617H58.9722C61.9744 15.8153 64.3333 13.4564 64.3333 10.5078V5.3075C64.3333 2.35889 61.9744 0 59.0258 0Z" fill="#FFEC65"/>
<path d="M100.521 17.2092C98.43 15.1183 95.0525 15.1183 92.9617 17.1556L90.8708 19.2464C88.78 21.3372 88.78 24.7147 90.8708 26.7519L90.9244 26.8056C93.0153 28.8964 96.3928 28.8964 98.43 26.8056L100.521 24.7147C102.612 22.6239 102.612 19.3 100.521 17.2092Z" fill="#FFEC65"/>
<path d="M58.9722 26.5375C41.2269 26.5375 26.8056 40.9589 26.8056 58.7042C26.8056 70.2067 32.8649 80.3126 41.9612 85.9996C46.3138 73.3904 58.2867 64.3333 72.375 64.3333C72.9294 64.3333 73.4806 64.3474 74.0281 64.3751C76.3504 56.1331 81.0016 48.8671 87.2263 43.3322C81.7668 33.332 71.1526 26.5375 58.9722 26.5375Z" fill="#FFEC65"/>
<path d="M17.4236 100.199C19.5144 102.29 22.8919 102.29 24.9828 100.199L27.0736 98.1084C29.1644 96.0175 29.1108 92.64 27.0736 90.6028L27.02 90.5492C24.9292 88.4584 21.5517 88.4584 19.4608 90.5492L17.37 92.64C15.3328 94.7845 15.3328 98.1084 17.4236 100.199Z" fill="#FFEC65"/>
<path d="M152.863 152.792H160.833C178.598 152.792 193 138.39 193 120.625C193 105.538 182.613 92.8762 168.599 89.4021C168.782 87.7724 168.875 86.1159 168.875 84.4375C168.875 60.0104 149.073 40.2083 124.646 40.2083C104.385 40.2083 87.3066 53.8312 82.0698 72.4168C81.5222 72.389 80.9711 72.375 80.4167 72.375C62.6515 72.375 48.25 86.7765 48.25 104.542C48.25 104.998 48.2595 105.453 48.2783 105.904C38.8934 109.208 32.1667 118.152 32.1667 128.667C32.1667 141.991 42.9678 152.792 56.2917 152.792H95.2797L129.726 92.5102C133.818 85.3503 144.75 88.2536 144.75 96.5V128.667H152.792C158.966 128.667 162.837 135.337 159.774 140.698L152.863 152.792Z" fill="white"/>
<path d="M104.542 152.792L136.708 96.5V136.708H152.792L120.625 193V152.792H104.542Z" fill="#FFEC65"/>
<path d="M92.8951 193H84.0216L84.9089 183.171L76.8118 188.867L72.375 181.049L81.2486 176.917L72.375 172.784L76.8118 164.966L84.9089 170.662L84.0216 160.833H92.8951L92.0078 170.662L100.105 164.966L104.542 172.784L95.6681 176.917L104.542 181.049L100.105 188.867L92.0078 183.171L92.8951 193Z" fill="white"/>
</svg>
