<svg width="22" height="22" viewBox="0 0 22 22" fill="none" xmlns="http://www.w3.org/2000/svg">
<path d="M0 9.35156C0 14.5078 4.19531 18.7031 9.35156 18.7031C11.3906 18.7031 13.2539 18.0469 14.7891 16.9453L19.1563 20.9844C19.4258 21.2539 19.7774 21.3828 20.1524 21.3828C20.9493 21.3828 21.5 20.7851 21.5 20C21.5 19.625 21.3594 19.2851 21.1133 19.039L16.7812 15.0117C17.9883 13.4414 18.7031 11.4844 18.7031 9.35156C18.7031 4.19531 14.5078 0 9.35156 0C4.19531 0 0 4.19531 0 9.35156ZM2.00391 9.35156C2.00391 5.29688 5.29688 2.00391 9.35156 2.00391C13.4062 2.00391 16.6992 5.29688 16.6992 9.35156C16.6992 13.4062 13.4062 16.6992 9.35156 16.6992C5.29688 16.6992 2.00391 13.4062 2.00391 9.35156Z" fill="white" fill-opacity="0.85"/>
</svg>
