<svg width="26" height="26" viewBox="0 0 26 26" fill="none" xmlns="http://www.w3.org/2000/svg">
<path d="M13 16.5999C14.9882 16.5999 16.6 14.9881 16.6 12.9999C16.6 11.0117 14.9882 9.3999 13 9.3999C11.0118 9.3999 9.40002 11.0117 9.40002 12.9999C9.40002 14.9881 11.0118 16.5999 13 16.5999Z" stroke="white" stroke-opacity="0.85" stroke-width="1.5" stroke-linecap="round"/>
<path fill-rule="evenodd" clip-rule="evenodd" d="M10.6828 2.63538C11.4581 0.454876 14.5418 0.454876 15.3171 2.63537C15.8056 4.00852 17.374 4.65823 18.6903 4.03255C20.7803 3.03903 22.9609 5.2195 21.9675 7.30963C21.3418 8.62589 21.9914 10.1944 23.3646 10.6828C25.5451 11.4581 25.5451 14.5419 23.3646 15.3172C21.9914 15.8055 21.3418 17.3741 21.9675 18.6904C22.9609 20.7804 20.7803 22.9609 18.6903 21.9674C17.374 21.3418 15.8056 21.9915 15.3171 23.3647C14.5418 25.5451 11.4581 25.5451 10.6828 23.3647C10.1944 21.9915 8.62589 21.3418 7.30963 21.9674C5.2195 22.9609 3.03901 20.7804 4.03255 18.6904C4.65822 17.3741 4.00852 15.8055 2.63535 15.3172C0.45488 14.5419 0.45488 11.4581 2.63537 10.6828C4.00852 10.1944 4.65822 8.62589 4.03255 7.30963C3.03901 5.2195 5.2195 3.03903 7.30963 4.03255C8.62589 4.65823 10.1944 4.00852 10.6828 2.63538Z" stroke="white" stroke-opacity="0.85" stroke-width="1.5" stroke-linecap="round"/>
</svg>
